#!OML:ASF F:\VICON\USERDATA\INSTALL\rory3\rory3.ASF
:FULLY-SPECIFIED
:DEGREES
376
root 2.03462 17.6327 0.196637 -10.4074 -72.689 8.9153
lowerback 14.5588 4.30615 1.27031
upperback 2.87251 5.76408 -0.302012
thorax -4.92654 2.77414 -2.08466
lowerneck -6.95163 8.18576 0.133669
upperneck 11.2974 10.3399 5.20793
head 4.24337 5.37123 2.13457
rclavicle 6.16232e-014 -1.59028e-014
rhumerus -17.4308 13.8275 -66.8012
rradius 137.551
rwrist -24.0969
rhand -14.8689 11.8053
rfingers 7.12502
rthumb 11.2912 -17.8708
lclavicle 6.16232e-014 -1.59028e-014
lhumerus -44.838 2.27546 63.3205
lradius 150.221
lwrist 17.2671
lhand -8.21207 11.1538
lfingers 7.12502
lthumb 17.7048 40.3678
rfemur -9.45992 21.9881 6.60386
rtibia 45.7384
rfoot -24.9557 4.60653
rtoes -20.3679
lfemur -20.1272 5.79519 -4.98748
ltibia 44.2521
lfoot -9.35652 6.70475
ltoes -7.463
377
root 2.04382 17.6293 0.215772 -10.2263 -73.1261 8.87626
lowerback 14.533 4.16686 1.14949
upperback 2.82221 5.56872 -0.20731
thorax -4.99474 2.67892 -1.88477
lowerneck -6.91134 8.44696 0.407742
upperneck 11.372 10.708 4.77987
head 4.28959 5.53903 1.98552
rclavicle -1.56046e-014 6.36111e-015
rhumerus -17.7074 14.6238 -67.0379
rradius 137.326
rwrist -23.7514
rhand -14.898 12.2517
rfingers 7.12502
rthumb 11.2631 -17.4259
lclavicle -1.56046e-014 6.36111e-015
lhumerus -44.9023 3.28443 59.3619
lradius 150.184
lwrist 18.653
lhand -8.11213 11.9739
lfingers 7.12502
lthumb 17.8009 41.1792
rfemur -9.77485 22.1619 6.47876
rtibia 45.6821
rfoot -24.8082 4.90643
rtoes -19.4404
lfemur -20.0466 6.03485 -4.72458
ltibia 44.1737
lfoot -9.25863 6.0059
ltoes -6.21903
378
root 2.05244 17.6309 0.242183 -9.80949 -73.6052 8.54494
lowerback 14.531 3.98771 1.18122
upperback 2.77578 5.34113 -0.155395
thorax -5.05281 2.56572 -1.80951
lowerneck -6.87943 8.75309 0.811598
upperneck 11.4395 11.1227 4.343
head 4.34486 5.73419 1.81838
rclavicle -6.26172e-015 1.27222e-014
rhumerus -18.0394 15.497 -67.4647
rradius 137.076
rwrist -23.3967
rhand -14.7162 12.3752
rfingers 7.12502
rthumb 11.4384 -17.2928
lclavicle -6.26172e-015 1.27222e-014
lhumerus -44.8129 4.26868 55.0346
lradius 149.92
lwrist 20.3072
lhand -7.72323 12.4831
lfingers 7.12502
lthumb 18.1751 41.654
rfemur -10.0891 22.2799 6.41241
rtibia 45.6558
rfoot -24.515 5.28339
rtoes -18.7951
lfemur -19.825 6.19472 -4.36806
ltibia 44.005
lfoot -9.22543 5.14798
ltoes -3.99444
379
root 2.06095 17.6437 0.274154 -9.79706 -73.9989 8.63311
lowerback 14.5585 3.79649 1.06078
upperback 2.7084 5.07477 -0.116045
thorax -5.16238 2.43496 -1.65877
lowerneck -6.82266 9.03621 1.04214
upperneck 11.4677 11.5197 3.98832
head 4.37215 5.91817 1.69866
rclavicle -2.89232e-014 1.47101e-014
rhumerus -18.3916 16.3341 -67.9498
rradius 136.832
rwrist -23.1613
rhand -13.7183 11.3518
rfingers 7.12502
rthumb 12.4007 -18.2604
lclavicle -2.89232e-014 1.47101e-014
lhumerus -44.6444 5.10561 50.5891
lradius 149.463
lwrist 22.2489
lhand -7.96963 13.3549
lfingers 7.12502
lthumb 17.9381 42.5477
rfemur -10.4346 22.2323 6.13438
rtibia 45.6705
rfoot -24.0752 5.84636
rtoes -18.531
lfemur -19.5621 6.1581 -4.18962
ltibia 43.7388
lfoot -9.08022 4.34157
ltoes -1.86072
380
root 2.071 17.6619 0.309584 -9.30997 -74.3981 8.22574
lowerback 14.6014 3.6355 0.999371
upperback 2.63625 4.86325 0.0174249
thorax -5.28581 2.33084 -1.45279
lowerneck -6.85357 9.291 1.13232
upperneck 11.5485 11.8872 3.68517
head 4.42079 6.08561 1.62038
rclavicle 4.44284e-014 -1.43125e-014
rhumerus -18.8487 17.2282 -68.2556
rradius 136.673
rwrist -22.6662
rhand -13.6304 10.2481
rfingers 7.12502
rthumb 12.4855 -19.3589
lclavicle 4.44284e-014 -1.43125e-014
lhumerus -44.1731 5.92429 46.1202
lradius 148.875
lwrist 24.8859
lhand -6.86826 13.1432
lfingers 7.12502
lthumb 18.9975 42.2355
rfemur -10.8205 22.2678 6.00428
rtibia 45.7391
rfoot -23.5005 6.26795
rtoes -19.0738
lfemur -19.2749 6.06324 -3.86174
ltibia 43.4017
lfoot -8.96573 3.56174
ltoes -0.253279
381
root 2.08351 17.6811 0.345162 -8.45932 -74.886 7.46654
lowerback 14.6457 3.5135 0.926034
upperback 2.57823 4.70366 0.200438
thorax -5.39757 2.25302 -1.19644
lowerneck -7.08291 9.55352 1.33261
upperneck 11.7285 12.2625 3.26231
head 4.54899 6.25471 1.50696
rclavicle -2.90226e-014 7.95139e-015
rhumerus -19.3327 18.1235 -68.436
rradius 136.479
rwrist -21.984
rhand -14.6872 10.3222
rfingers 7.12502
rthumb 11.4664 -19.3442
lclavicle -2.90226e-014 7.95139e-015
lhumerus -43.4974 6.7234 41.6966
lradius 148.023
lwrist 27.3643
lhand -4.45356 13.1665
lfingers 7.12502
lthumb 21.3184 42.0139
rfemur -11.3448 22.4014 5.93348
rtibia 45.877
rfoot -22.8355 6.76658
rtoes -19.7472
lfemur -18.9954 6.00949 -3.4266
ltibia 43.0629
lfoot -8.94731 2.67302
ltoes 2.27033
382
root 2.09867 17.6971 0.381179 -8.53236 -75.3191 7.66986
lowerback 14.6678 3.43644 0.624704
upperback 2.56259 4.5587 0.257646
thorax -5.45792 2.18633 -0.943553
lowerneck -7.31953 9.76602 1.57476
upperneck 11.7753 12.5728 2.80506
head 4.64526 6.39055 1.37085
rclavicle -1.99779e-014 1.19271e-015
rhumerus -19.7892 18.6636 -68.5739
rradius 136.354
rwrist -22.0076
rhand -14.8728 10.4797
rfingers 7.12502
rthumb 11.2875 -19.1965
lclavicle -1.99779e-014 1.19271e-015
lhumerus -42.4804 7.27892 37.576
lradius 146.862
lwrist 29.4652
lhand -3.15071 13.5879
lfingers 7.12502
lthumb 22.5693 42.2887
rfemur -11.9571 22.4755 5.48687
rtibia 46.082
rfoot -21.9613 7.60834
rtoes -19.6364
lfemur -18.7457 5.98105 -3.3083
ltibia 42.7587
lfoot -8.87048 1.53468
ltoes 0.273048
383
root 2.11859 17.7085 0.422989 -8.51673 -75.6975 7.71216
lowerback 14.7408 3.37246 0.487681
upperback 2.58007 4.45282 0.283747
thorax -5.49364 2.13563 -0.823647
lowerneck -7.52259 9.92818 1.68065
upperneck 11.7134 12.8215 2.44887
head 4.68882 6.49629 1.27546
rclavicle 6.7885e-014 -1.19271e-014
rhumerus -20.3519 18.9384 -68.6253
rradius 136.358
rwrist -22.4841
rhand -13.987 10.1621
rfingers 7.12502
rthumb 12.1416 -19.4656
lclavicle 6.7885e-014 -1.19271e-014
lhumerus -41.1563 7.65664 33.9004
lradius 145.467
lwrist 31.5414
lhand -3.47175 14.5861
lfingers 7.12502
lthumb 22.2612 43.3239
rfemur -12.5111 22.5856 5.05641
rtibia 46.315
rfoot -20.8981 8.55707
rtoes -19.4033
lfemur -18.4922 6.02354 -3.19107
ltibia 42.5287
lfoot -8.90791 0.402625
ltoes -7.54215
384
root 2.13696 17.7294 0.472034 -7.64951 -76.0917 6.8364
lowerback 14.8233 3.28638 0.492892
upperback 2.59551 4.34791 0.441776
thorax -5.53596 2.0837 -0.645282
lowerneck -7.77167 10.1264 1.63263
upperneck 11.7387 13.1268 2.17382
head 4.7518 6.62768 1.23585
rclavicle -4.05521e-014 7.15625e-015
rhumerus -20.8695 19.2073 -68.569
rradius 136.377
rwrist -23.1503
rhand -12.8734 10.2511
rfingers 7.12502
rthumb 13.2152 -19.31
lclavicle -4.05521e-014 7.15625e-015
lhumerus -39.5401 8.06364 30.5226
lradius 143.514
lwrist 33.372
lhand -3.36091 15.2895
lfingers 7.12502
lthumb 22.3676 44.0147
rfemur -13.0132 22.7461 4.87805
rtibia 46.5531
rfoot -19.7456 9.4555
rtoes -19.459
lfemur -18.1968 6.00286 -2.877
ltibia 42.3613
lfoot -9.11286 -0.310518
ltoes -12.7278
385
root 2.15515 17.7575 0.522246 -6.91871 -76.3602 6.14808
lowerback 14.9225 3.19654 0.260627
upperback 2.55976 4.20665 0.652939
thorax -5.66273 2.01854 -0.273807
lowerneck -7.96508 10.2879 1.71604
upperneck 11.7137 13.3967 1.67615
head 4.81572 6.73294 1.10598
rclavicle 5.06901e-015 7.55382e-015
rhumerus -21.443 19.4674 -68.5051
rradius 136.416
rwrist -24.1497
rhand -11.8934 10.5857
rfingers 7.12502
rthumb 14.1597 -18.9118
lclavicle 5.06901e-015 7.55382e-015
lhumerus -37.5667 8.43641 27.4853
lradius 140.813
lwrist 34.4637
lhand -2.93012 16.0115
lfingers 7.12502
lthumb 22.781 44.6864
rfemur -13.5345 22.7966 4.57581
rtibia 46.7821
rfoot -18.3883 10.5038
rtoes -18.8004
lfemur -18.0298 5.90884 -2.70424
ltibia 42.2733
lfoot -9.23127 -0.545133
ltoes -14.2104
386
root 2.18007 17.7796 0.568596 -6.60235 -76.3999 5.75678
lowerback 15.0915 3.08908 -0.216224
upperback 2.62187 4.00026 0.895699
thorax -5.74027 1.92562 0.28169
lowerneck -8.16354 10.4182 1.93181
upperneck 11.5854 13.6298 1.00353
head 4.87176 6.81462 0.901282
rclavicle 4.97956e-014 -3.18055e-015
rhumerus -21.9508 19.9805 -68.4689
rradius 136.258
rwrist -24.0294
rhand -11.4099 10.6164
rfingers 7.12502
rthumb 14.6256 -18.8478
lclavicle 4.97956e-014 -3.18055e-015
lhumerus -35.4868 8.97037 24.9452
lradius 137.531
lwrist 34.8371
lhand -2.34389 16.4181
lfingers 7.12502
lthumb 23.3435 45.0227
rfemur -13.9049 22.7344 4.21755
rtibia 47.0285
rfoot -16.8634 11.5804
rtoes -17.8592
lfemur -17.8591 5.7384 -2.6704
ltibia 42.2416
lfoot -9.36296 -0.364513
ltoes -14.2099
387
root 2.20545 17.797 0.616489 -6.32716 -76.3186 5.32248
lowerback 15.349 2.95732 -0.703472
upperback 2.66305 3.76088 1.17142
thorax -5.88519 1.81723 0.882111
lowerneck -8.34564 10.559 1.97253
upperneck 11.5808 13.8823 0.47317
head 4.94285 6.90574 0.76856
rclavicle -1.12015e-013 2.3059e-014
rhumerus -22.6117 20.9958 -68.5048
rradius 135.849
rwrist -22.1924
rhand -12.3463 11.049
rfingers 7.12502
rthumb 13.7233 -18.4785
lclavicle -1.12015e-013 2.3059e-014
lhumerus -33.5377 9.48977 22.8018
lradius 133.587
lwrist 34.8614
lhand -1.10643 16.11
lfingers 7.12502
lthumb 24.5302 44.5588
rfemur -14.1548 22.6531 3.89737
rtibia 47.3081
rfoot -15.2843 12.5594
rtoes -17.4774
lfemur -17.6481 5.41793 -2.68481
ltibia 42.2771
lfoot -9.70423 0.463375
ltoes -14.1592
388
root 2.22402 17.8142 0.668228 -6.89689 -76.2068 5.72053
lowerback 15.4319 2.83272 -1.33756
upperback 2.76507 3.50194 1.39052
thorax -5.86763 1.70203 1.52242
lowerneck -8.43626 10.7206 1.8199
upperneck 11.568 14.1703 0.0959617
head 4.97283 7.01613 0.704957
rclavicle 2.57426e-014 5.56597e-015
rhumerus -23.0727 21.5039 -68.255
rradius 135.679
rwrist -22.354
rhand -11.2405 10.9614
rfingers 7.12502
rthumb 14.7888 -18.491
lclavicle 2.57426e-014 5.56597e-015
lhumerus -31.3671 10.0476 21.0093
lradius 128.879
lwrist 34.826
lhand 0.04876 15.9235
lfingers 7.12502
lthumb 25.6371 44.2175
rfemur -14.3618 22.5571 3.35611
rtibia 47.6489
rfoot -13.6655 13.5524
rtoes -17.6233
lfemur -17.3791 5.13439 -2.97021
ltibia 42.3995
lfoot -10.2879 1.77162
ltoes -13.6921
